<svg xmlns="http://www.w3.org/2000/svg" viewBox="0 0 24 19"><defs><style>.cls-1{fill:#fff;}</style></defs><title>kitchen</title><g id="Layer_2" data-name="Layer 2"><g id="Layer_1-2" data-name="Layer 1"><path d="M0,18a.94.94,0,0,0,1,1H23a.94.94,0,0,0,1-1V17H0Z"/><path d="M22,15h2A11.9,11.9,0,0,0,13,3.1V2h1a.94.94,0,0,0,1-1,.94.94,0,0,0-1-1H10A.94.94,0,0,0,9,1a.94.94,0,0,0,1,1h1V3.1A11.9,11.9,0,0,0,0,15H22Z"/><path d="M21.8,13H2.2a10,10,0,0,1,19.6,0Z"/><path class="cls-1" d="M16.5,7.2l-.5.9a8.35,8.35,0,0,1,3.4,3.8l.9-.4A8.82,8.82,0,0,0,16.5,7.2Z"/></g></g></svg>